<svg xmlns="http://www.w3.org/2000/svg" viewBox="0 0 24 24" width="24" height="24"><path d="M22 2.019V22H2.017V2.023h19.865L22 2.019zM3.261 12.001v8.609c0 .151-.023.143.145.143h17.191c.153 0 .153 0 .153-.149V3.415c0-.141 0-.141-.139-.141H3.402c-.159 0-.141-.017-.141.147v8.58z" fill="#e31f26"/><path d="M22 2.019H2.019v19.977H2V2h19.917a.4.4 0 01.083.019z" fill="#fff"/><path d="M3.261 12.001V3.41c0-.164-.019-.147.141-.147h17.21c.139 0 .139 0 .139.141v17.2c0 .149 0 .149-.153.149H3.406c-.168 0-.145 0-.145-.143v-8.609zm9.358-5.397a.254.254 0 000-.039c.017-.472.033-.944.054-1.417a.13.13 0 00-.087-.145 4.56 4.56 0 00-3.014-.311 3.282 3.282 0 00-2.29 1.848 3.519 3.519 0 00-.28 2.038 3.264 3.264 0 002.026 2.67 4.11 4.11 0 003.509-.207.13.13 0 00.083-.135V9.469v-.083h-.025l-.046.037a2.72 2.72 0 01-2.322.748A1.775 1.775 0 018.75 9.093a2.654 2.654 0 01-.078-1.909c.132-.445.434-.819.841-1.042a2.455 2.455 0 012.486.017c.214.136.422.285.62.445zm4.313 5.89H7.075v1.036h9.855l.002-1.036zm-.137-1.127V4.74h-1.514v6.634h1.481l.033-.007zm-.307 5.559v-.017l.062-.043a.758.758 0 00.315-.414c.159-.541-.081-1.348-.965-1.379-.387-.014-.773 0-1.16-.019-.095 0-.122.023-.122.122V19.049h1.111c.209-.002.418-.028.621-.077.434-.132.731-.532.733-.986a.99.99 0 00-.597-1.06h.002zM9.72 19.049h.456c.095 0 .116-.031.116-.12v-3.767a.258.258 0 000-.068c0-.019-.029-.046-.046-.046h-.522v1.383c0 .091-.021.122-.116.122H7.739v-.207-1.189c0-.031-.025-.087-.039-.087h-.516v3.974h.559V17.09h1.868c.091 0 .118.025.118.118v1.707l-.009.134zm3.728-4.001v2.483c0 .14-.014.279-.041.416a.765.765 0 01-.669.667 1.564 1.564 0 01-.621-.012.716.716 0 01-.588-.549 1.856 1.856 0 01-.064-.48v-2.388a.236.236 0 000-.075c0-.021-.027-.048-.043-.048h-.518V17.615c.001.149.015.298.043.445.07.521.461.942.976 1.05.374.092.766.086 1.137-.017.393-.096.71-.384.843-.766.08-.22.121-.452.12-.686v-2.473-.104l-.575-.016z" fill="#fff"/><path d="M12.619 6.604a6.712 6.712 0 00-.621-.441 2.455 2.455 0 00-2.486-.021 1.762 1.762 0 00-.828 1.056 2.652 2.652 0 00.079 1.91 1.772 1.772 0 001.477 1.077 2.717 2.717 0 002.322-.748l.045-.037h.025v1.52a.127.127 0 01-.079.126 4.106 4.106 0 01-3.509.207 3.263 3.263 0 01-2.026-2.67 3.519 3.519 0 01.28-2.038 3.283 3.283 0 012.274-1.854 4.554 4.554 0 013.018.311.13.13 0 01.087.145c-.021.472-.037.944-.054 1.417a.175.175 0 01-.004.04zM16.93 12.494v1.036H7.075v-1.036h9.855zM16.793 11.367h-1.514V4.73h1.514v6.637zM16.486 16.926a.991.991 0 01.597 1.058c-.002.454-.3.854-.735.986a2.77 2.77 0 01-.621.077h-1.036a.938.938 0 01-.075 0v-.106-3.767c0-.099.027-.124.122-.122.387 0 .773 0 1.16.019.884.031 1.125.828.965 1.379a.754.754 0 01-.315.414l-.062.043s.004.004 0 .019zm-1.313.957v.565c0 .079.019.108.101.104.207 0 .414 0 .621-.019a.572.572 0 00.596-.586.607.607 0 00-.559-.706c-.22-.017-.439 0-.659-.019-.077 0-.093.029-.091.095-.007.189-.009.377-.009.566zm0-2.34v1.212c.285.024.572.002.849-.066a.415.415 0 00.29-.327 1.105 1.105 0 000-.304c-.035-.304-.137-.427-.435-.47-.215-.033-.452-.031-.696-.043h-.008zM9.72 19.049v-.137-1.707c0-.093-.027-.118-.118-.118H7.737v1.957h-.559v-3.997h.516c.014 0 .039.056.039.087V16.53h1.868c.095 0 .116-.031.116-.122v-1.361h.522c.017 0 .037.027.046.046a.258.258 0 010 .068v3.767c0 .089-.021.124-.116.12-.137-.003-.282.001-.449.001zM13.448 15.048h.565v2.577c0 .234-.04.466-.12.686a1.19 1.19 0 01-.843.766 2.258 2.258 0 01-1.137.017 1.243 1.243 0 01-.976-1.05 2.38 2.38 0 01-.043-.445v-2.454-.099h.518c.017 0 .037.027.043.048a.236.236 0 010 .075v2.388c.001.162.022.324.064.48a.716.716 0 00.588.549c.204.046.416.05.621.012a.764.764 0 00.677-.648c.027-.136.041-.275.041-.414v-2.488z" fill="#e31f26"/><path d="M15.173 17.883v-.565c0-.066.014-.097.091-.095.22 0 .439 0 .659.019a.606.606 0 01.569.706.571.571 0 01-.56.583l-.047-.001c-.207 0-.414 0-.621.019-.083 0-.104-.025-.101-.104.014-.185.01-.374.01-.562zM15.181 15.543c.244.012.481 0 .713.043.298.043.4.166.435.47.014.101.014.203 0 .304a.415.415 0 01-.29.327c-.278.068-.564.09-.849.066l-.009-1.21z" fill="#fff"/></svg>